<svg xmlns="http://www.w3.org/2000/svg"
 viewBox="0.19689104 -0.30310926 8.106217 6.668396"
>
<polyline
 fill="none" stroke="green" stroke-width="0.25%"
 points="
  1.000000,  0.000000
  1.000000,  0.000000
  0.500000,  0.866025
  0.500000,  0.866025
  1.500000,  0.866025
  1.500000,  0.866025
  1.000000,  0.000000
  1.000000,  0.000000
  2.000000,  0.000000
  2.000000,  0.000000
  1.500000,  0.866025
  1.000000,  1.732051
  1.000000,  1.732051
  2.000000,  1.732051
  2.000000,  1.732051
  1.500000,  2.598076
  1.500000,  2.598076
  2.500000,  2.598076
  2.500000,  2.598076
  2.000000,  1.732051
  2.000000,  1.732051
  3.000000,  1.732051
  3.000000,  1.732051
  2.500000,  0.866025
  2.000000, -0.000000
  2.000000, -0.000000
  3.000000, -0.000000
  3.000000, -0.000000
  2.500000,  0.866025
  2.500000,  0.866025
  3.500000,  0.866025
  3.500000,  0.866025
  3.000000, -0.000000
  3.000000, -0.000000
  4.000000, -0.000000
  4.000000, -0.000000
  3.500000,  0.866025
  3.000000,  1.732051
  2.500000,  2.598076
  2.000000,  3.464102
  2.000000,  3.464102
  3.000000,  3.464102
  3.000000,  3.464102
  2.500000,  4.330127
  2.500000,  4.330127
  3.500000,  4.330127
  3.500000,  4.330127
  3.000000,  3.464101
  3.000000,  3.464101
  4.000000,  3.464101
  4.000000,  3.464101
  3.500000,  4.330127
  3.000000,  5.196152
  3.000000,  5.196152
  4.000000,  5.196152
  4.000000,  5.196152
  3.500000,  6.062178
  3.500000,  6.062178
  4.500000,  6.062178
  4.500000,  6.062178
  4.000000,  5.196152
  4.000000,  5.196152
  5.000000,  5.196152
  5.000000,  5.196152
  4.500000,  4.330127
  4.000000,  3.464101
  4.000000,  3.464101
  5.000000,  3.464101
  5.000000,  3.464101
  4.500000,  4.330127
  4.500000,  4.330127
  5.500000,  4.330127
  5.500000,  4.330127
  5.000000,  3.464101
  5.000000,  3.464101
  6.000000,  3.464101
  6.000000,  3.464101
  5.500000,  2.598076
  5.000000,  1.732050
  4.500000,  0.866025
  4.000000, -0.000000
  4.000000, -0.000000
  5.000000, -0.000000
  5.000000, -0.000000
  4.500000,  0.866025
  4.500000,  0.866025
  5.500000,  0.866025
  5.500000,  0.866025
  5.000000, -0.000000
  5.000000, -0.000000
  6.000000, -0.000000
  6.000000, -0.000000
  5.500000,  0.866025
  5.000000,  1.732050
  5.000000,  1.732050
  6.000000,  1.732050
  6.000000,  1.732050
  5.500000,  2.598076
  5.500000,  2.598076
  6.500000,  2.598076
  6.500000,  2.598076
  6.000000,  1.732050
  6.000000,  1.732050
  7.000000,  1.732050
  7.000000,  1.732050
  6.500000,  0.866025
  6.000000, -0.000000
  6.000000, -0.000000
  7.000000, -0.000000
  7.000000, -0.000000
  6.500000,  0.866025
  6.500000,  0.866025
  7.500000,  0.866025
  7.500000,  0.866025
  7.000000, -0.000000
  7.000000, -0.000000
  8.000000, -0.000000
 "
/>
</svg>
